<svg enable-background="new 0 0 220.8 300" viewBox="0 0 220.8 300" xmlns="http://www.w3.org/2000/svg" xmlns:xlink="http://www.w3.org/1999/xlink"><linearGradient id="a"><stop offset="0" stop-color="#0092ff"/><stop offset="1" stop-color="#005eff"/></linearGradient><linearGradient id="b" gradientUnits="userSpaceOnUse" x1="0" x2="220.7585" xlink:href="#a" y1="150" y2="150"/><linearGradient id="c"><stop offset="0" stop-color="#05f3a6"/><stop offset="1" stop-color="#00d89e"/></linearGradient><linearGradient id="d" gradientUnits="userSpaceOnUse" x1="53.8672" x2="189.9154" xlink:href="#c" y1="150" y2="150"/><linearGradient id="e" gradientUnits="userSpaceOnUse" x1="796.875" x2="954.9377" xlink:href="#c" y1="182.41" y2="182.41"/><linearGradient id="f" gradientUnits="userSpaceOnUse" x1="835.4438" x2="936.8761" xlink:href="#a" y1="182.41" y2="182.41"/><path d="m140.1 30.3c-32.1 0-57.4 10.7-76 32-18.5 21.4-27.8 50.7-27.8 87.8 0 38.2 8.9 67.7 26.9 88.5 17.9 20.8 43.4 31.2 76.5 31.2 20.4 0 43.6-3.7 69.7-11v29.7c-20.2 7.6-45.2 11.4-74.9 11.4-43 0-76.1-13-99.5-39.1-23.3-26-35-63.1-35-111.1 0-30.1 5.6-56.4 16.9-79 11.2-22.7 27.4-40.1 48.7-52.3 21.2-12.3 46.2-18.4 74.9-18.4 30.6 0 57.4 5.6 80.2 16.8l-14.4 29.1c-22-10.4-44.1-15.6-66.2-15.6z" fill="url(#b)"/><path d="m140.2 76.3c-19.8 0-35.4 6.6-46.8 19.7-11.4 13.2-17.2 31.2-17.2 54.1 0 23.5 5.5 41.7 16.5 54.6 11 12.8 26.8 19.3 47.2 19.3 12.5 0 26.9-2.3 42.9-6.8v18.3c-12.5 4.7-27.8 7-46.1 7-26.5 0-46.9-8-61.3-24.1s-21.6-38.9-21.6-68.5c0-18.5 3.5-34.8 10.4-48.7s16.9-24.7 30-32.2 28.5-11.3 46.2-11.3c18.9 0 35.3 3.4 49.4 10.3l-8.9 18c-13.5-6.5-27.1-9.7-40.7-9.7z" fill="url(#d)"/><path d="m897.2 96.7c-23 0-41.1 7.6-54.4 22.9s-19.9 36.2-19.9 62.8c0 27.3 6.4 48.5 19.2 63.4s31.1 22.4 54.8 22.4c14.6 0 31.2-2.6 49.9-7.9v21.3c-14.5 5.4-32.3 8.1-53.6 8.1-30.8 0-54.5-9.3-71.2-28s-25.1-45.2-25.1-79.6c0-21.5 4-40.4 12.1-56.6 8-16.2 19.7-28.7 34.9-37.4 15.1-8.7 33-13.1 53.6-13.1 21.9 0 41.1 4 57.5 12l-10.3 20.9c-15.9-7.5-31.7-11.2-47.5-11.2z" fill="url(#e)"/><path d="m899.8 127.4c-14.7 0-26.4 4.9-34.9 14.7s-12.8 23.2-12.8 40.3c0 17.5 4.1 31.1 12.3 40.7s19.9 14.4 35.2 14.4c9.4 0 20-1.7 32-5v13.7c-9.3 3.5-20.8 5.2-34.4 5.2-19.7 0-35-6-45.7-18s-16.1-29-16.1-51.1c0-13.8 2.6-25.9 7.8-36.3s12.6-18.4 22.4-24c9.7-5.6 21.2-8.4 34.4-8.4 14.1 0 26.4 2.6 36.9 7.7l-6.6 13.4c-10.2-4.9-20.3-7.3-30.5-7.3z" fill="url(#f)"/></svg>